<?xml version="1.0" standalone="no"?>
<!DOCTYPE svg PUBLIC "-//W3C//DTD SVG 20010904//EN"
 "http://www.w3.org/TR/2001/REC-SVG-20010904/DTD/svg10.dtd">
<svg version="1.0" xmlns="http://www.w3.org/2000/svg"
 width="499.000000pt" height="499.000000pt" viewBox="0 0 499.000000 499.000000"
 preserveAspectRatio="xMidYMid meet">
<metadata>
Created by potrace 1.11, written by Peter Selinger 2001-2013
</metadata>
<g transform="translate(0.000000,499.000000) scale(0.100000,-0.100000)"
fill="#000000" stroke="none">
<path d="M233 4954 c-72 -49 -162 -148 -200 -221 l-33 -61 0 -2116 0 -2117 46
-94 c78 -160 197 -269 353 -322 l66 -22 2035 0 2035 0 66 22 c151 52 267 155
341 303 l43 87 3 2125 2 2124 -31 64 c-38 77 -129 178 -203 228 l-54 36 -109
-1 c-98 -1 -103 -2 -58 -11 90 -17 209 -82 284 -156 81 -82 106 -131 121 -242
8 -62 11 -633 8 -2070 -3 -1897 -4 -1987 -21 -2040 -66 -195 -201 -326 -390
-377 -57 -16 -213 -17 -2042 -16 -1799 0 -1986 2 -2044 17 -154 40 -287 149
-360 297 -23 46 -46 109 -52 139 -7 38 -11 647 -11 1966 0 1051 -4 1933 -8
1960 -10 62 2 117 48 214 65 139 224 267 378 304 l59 14 -110 1 c-110 0 -110
0 -162 -35z"/>
<path d="M2380 2495 l0 -2025 125 0 125 0 0 55 c0 42 3 55 15 55 8 0 15 9 15
20 0 11 -7 20 -15 20 -13 0 -15 32 -15 225 0 193 2 225 15 225 8 0 15 7 15 15
0 8 -7 15 -15 15 -12 0 -15 18 -15 105 0 93 2 105 18 105 16 1 16 1 0 14 -12
9 -18 27 -18 54 0 30 4 42 18 45 16 4 16 5 0 6 -17 1 -18 24 -18 341 0 296 2
340 15 340 8 0 15 7 15 15 0 8 -7 15 -15 15 -13 0 -15 22 -15 134 0 120 2 135
18 139 16 4 16 5 0 6 -16 1 -18 13 -18 110 0 96 2 110 18 114 16 4 16 5 0 6
-14 1 -18 10 -18 35 0 24 5 36 18 39 16 4 16 5 0 6 -16 1 -18 14 -18 125 0
110 2 125 18 129 16 4 16 5 0 6 -15 1 -18 11 -18 56 0 42 3 55 15 55 8 0 15 5
15 10 0 6 -7 10 -15 10 -12 0 -15 16 -15 80 0 64 3 80 15 80 8 0 15 9 15 20 0
11 -7 20 -15 20 -13 0 -15 28 -15 190 0 162 2 190 15 190 8 0 15 5 15 10 0 6
-7 10 -15 10 -12 0 -15 17 -15 95 0 78 3 95 15 95 8 0 15 9 15 20 0 11 -7 20
-15 20 -13 0 -15 32 -15 225 0 193 2 225 15 225 8 0 15 7 15 15 0 8 -7 15 -15
15 -11 0 -15 12 -15 45 l0 45 -125 0 -125 0 0 -2025z"/>
<path d="M3485 3894 c-11 -2 -121 -8 -244 -13 -123 -6 -225 -12 -227 -14 -3
-2 -5 -629 -5 -1393 l0 -1389 58 -8 c88 -12 1003 -3 1033 11 l25 11 -25 1
c-14 0 14 11 61 24 87 23 217 79 269 116 15 11 41 21 57 21 15 1 20 3 11 6
-13 3 2 22 57 75 113 106 187 240 216 384 16 81 23 262 11 304 -5 19 -17 67
-26 105 -27 117 -79 210 -165 295 -85 84 -167 136 -288 181 -46 18 -80 35 -77
40 3 5 -3 9 -13 9 -24 0 133 80 160 81 15 1 17 3 6 6 -12 3 1 20 48 66 76 73
137 162 160 235 9 28 23 52 30 52 7 0 13 5 13 10 0 6 -4 10 -10 10 -6 0 -10
43 -10 109 0 194 -54 325 -185 449 -164 156 -392 223 -750 220 -93 0 -179 -2
-190 -4z m419 -339 c215 -38 318 -154 319 -360 2 -230 -113 -372 -338 -420
-72 -15 -391 -21 -454 -9 l-31 7 0 162 c0 121 3 165 13 169 10 5 10 7 0 12
-16 7 -18 164 -3 164 6 0 10 7 10 15 0 8 -4 15 -10 15 -15 0 -13 137 3 144 10
5 10 7 0 12 -8 3 -13 24 -13 49 l0 44 58 4 c150 9 372 5 446 -8z m108 -1113
c204 -56 305 -152 349 -332 17 -70 17 -247 0 -325 -67 -313 -358 -434 -903
-378 l-58 6 0 343 c0 223 4 344 10 344 6 0 10 9 10 20 0 11 -4 20 -10 20 -15
0 -12 60 3 61 10 0 10 2 0 6 -9 3 -13 28 -13 74 0 48 4 69 13 70 10 0 10 2 0
6 -8 3 -13 25 -13 59 l0 54 268 -3 c235 -3 276 -6 344 -25z"/>
<path d="M1853 3873 l-153 -4 0 -553 0 -553 -182 -6 c-226 -9 -895 -9 -925 -1
-22 6 -23 12 -23 89 0 57 4 85 13 88 10 4 10 6 0 6 -9 1 -13 24 -13 80 0 54 4
81 13 85 10 5 10 7 0 12 -9 4 -13 32 -13 89 0 57 4 85 13 88 10 4 10 6 0 6
-18 1 -18 147 0 154 9 4 9 6 0 6 -8 1 -13 17 -13 45 0 26 5 46 13 49 10 4 10
6 0 6 -18 1 -18 147 0 154 9 4 9 6 0 6 -7 1 -13 14 -13 30 0 15 -3 49 -6 75
l-7 46 -175 -2 -175 -3 2 -1025 c1 -985 9 -1750 18 -1760 2 -2 87 -6 188 -8
166 -4 185 -3 185 12 0 9 -4 16 -10 16 -6 0 -10 33 -10 80 0 57 4 80 13 80 9
0 9 2 0 8 -16 10 -31 832 -14 832 6 0 11 9 11 20 0 11 -4 20 -10 20 -15 0 -12
57 3 63 9 4 9 6 0 6 -9 1 -13 22 -13 70 0 46 4 71 13 75 9 5 9 7 0 12 -7 3
-13 16 -13 28 l0 23 362 6 c199 4 452 7 563 7 l203 0 6 -31 c3 -17 6 -318 6
-669 l0 -637 46 -7 c26 -3 115 -6 198 -6 128 1 148 3 134 14 -15 11 -18 30
-18 114 0 71 4 102 13 105 10 4 10 6 0 6 -9 1 -13 18 -13 50 0 30 5 51 13 54
10 4 10 6 0 6 -10 1 -13 76 -13 339 0 257 3 341 13 351 10 11 10 14 0 18 -10
3 -13 40 -13 138 0 97 3 135 13 138 10 4 10 6 0 6 -10 1 -13 30 -13 110 0 78
4 111 13 114 10 4 10 6 0 6 -8 1 -13 15 -13 36 0 21 5 35 13 35 6 0 4 5 -5 11
-12 7 -18 22 -18 49 0 28 5 40 18 43 16 4 16 5 0 6 -15 1 -18 12 -18 75 0 50
4 76 13 79 10 4 10 6 0 6 -21 2 -17 101 5 117 16 13 16 13 0 14 -16 0 -18 11
-18 85 0 50 4 85 10 85 6 0 10 7 10 15 0 8 -4 15 -10 15 -16 0 -13 377 3 383
9 4 9 7 0 14 -7 5 -13 40 -15 83 -3 72 -4 75 -28 75 -14 1 -94 0 -177 -2z"/>
</g>
</svg>
